<svg width="209" height="36" viewBox="0 0 209 36" xmlns="http://www.w3.org/2000/svg"><title>img-free-consult</title><g fill="#FFF" fill-rule="evenodd"><text font-family="Lato-Bold, Lato" font-size="21" font-weight="bold"><tspan x="46" y="27">FREE</tspan> <tspan x="95.591" y="27" font-family="Lato-Medium, Lato" font-weight="400"> Conultation</tspan></text><path d="M30.718 5.274A17.872 17.872 0 0 0 17.99 0C13.18 0 8.666 1.872 5.263 5.274-1.313 11.85-1.77 22.376 4.129 29.477c-.578 1.165-1.507 2.52-2.885 3.197a1.675 1.675 0 0 0-.92 1.766c.114.73.677 1.301 1.408 1.415.342.054.83.107 1.423.107 1.59 0 3.935-.373 6.333-2.1a18 18 0 0 0 21.236-3.136A17.869 17.869 0 0 0 36 18c0-4.81-1.88-9.323-5.282-12.726zm-1.454 23.998a15.943 15.943 0 0 1-19.349 2.481 1.023 1.023 0 0 0-1.248.16.338.338 0 0 0-.084.06c-2.063 1.6-4.087 1.934-5.427 1.934h-.008c1.545-1.126 2.52-2.8 3.09-4.102.092-.221.107-.45.054-.663a1.068 1.068 0 0 0-.251-.578C.469 22.27.758 12.68 6.71 6.728 12.929.51 23.045.51 29.256 6.728c6.226 6.218 6.226 16.326.008 22.544z" fill-rule="nonzero"/><circle cx="18" cy="18" r="1"/><circle cx="24" cy="18" r="1"/><circle cx="12" cy="18" r="1"/></g></svg>