<svg width="91" height="94" viewBox="0 0 91 94" xmlns="http://www.w3.org/2000/svg"><title>img-rated-excellent</title><g fill="none" fill-rule="evenodd"><path stroke="#FFF" d="M45.5 88.528l-6.333 4.52-4.803-6.12-7.35 2.55-2.885-7.225-7.77.378-.733-7.745-7.562-1.827 1.48-7.638-6.741-3.884 3.571-6.912L1 49l5.374-5.625-3.571-6.912 6.74-3.884-1.479-7.638 7.562-1.827.733-7.745 7.77.378 2.885-7.226 7.35 2.552 4.803-6.12L45.5 9.472l6.333-4.52 4.803 6.12 7.35-2.55 2.885 7.225 7.77-.378.733 7.745 7.562 1.827-1.48 7.638 6.741 3.884-3.571 6.912L90 49l-5.374 5.625 3.571 6.912-6.74 3.884 1.479 7.638-7.562 1.827-.733 7.745-7.77-.378-2.885 7.226-7.35-2.552-4.803 6.12z"/><text font-family="Lato-Bold, Lato" font-size="13" font-weight="bold" fill="#FFF" transform="translate(1)"><tspan x="23.658" y="44">RATED</tspan> <tspan x="9.159" y="60">EXCELLENT</tspan></text><path fill="#FFF" d="M35 71l-2.351 1.236.449-2.618-1.902-1.854 2.628-.382L35 65l1.176 2.382 2.628.382-1.902 1.854.45 2.618zm10 0l-2.351 1.236.449-2.618-1.902-1.854 2.628-.382L45 65l1.176 2.382 2.628.382-1.902 1.854.45 2.618zm10 0l-2.351 1.236.449-2.618-1.902-1.854 2.628-.382L55 65l1.176 2.382 2.628.382-1.902 1.854.45 2.618z"/><path fill="#FFF" opacity=".559" d="M65.196 71l-2.351 1.236.449-2.618-1.902-1.854 2.628-.382L65.196 65l1.175 2.382 2.629.382-1.902 1.854.449 2.618z"/><path fill="#FFF" d="M65.196 71l-2.351 1.236.449-2.618-1.902-1.854 2.628-.382L65.196 65zM25 71l-2.351 1.236.449-2.618-1.902-1.854 2.628-.382L25 65l1.176 2.382 2.628.382-1.902 1.854.45 2.618zm11.346-51.618L44.573 31 71.26.724l-26.686 22.3z"/></g></svg>