<?xml version="1.0" encoding="UTF-8"?>
<svg width="209px" height="36px" viewBox="0 0 209 36" version="1.1" xmlns="http://www.w3.org/2000/svg" xmlns:xlink="http://www.w3.org/1999/xlink">
    <!-- Generator: Sketch 52.2 (67145) - http://www.bohemiancoding.com/sketch -->
    <title>img-free-consult</title>
    <desc>Created with Sketch.</desc>
    <g id="Page-1" stroke="none" stroke-width="1" fill="none" fill-rule="evenodd">
        <g id="img-free-consult" fill="#FFFFFF">
            <text id="FREE-Conultation" font-family="Lato-Bold, Lato" font-size="21" font-weight="bold">
                <tspan x="46" y="27">FREE</tspan>
                <tspan x="95.5915" y="27" font-family="Lato-Medium, Lato" font-weight="400"> Conultation</tspan>
            </text>
            <path d="M30.7175488,5.2744186 C27.3151632,1.87230444 22.8014837,0 17.9909518,0 C13.1804199,0 8.66674048,1.87230444 5.26435479,5.2744186 C-1.31206855,11.8503171 -1.76876462,22.3763214 4.13022623,29.4773784 C3.55174455,30.6418605 2.62312921,31.9966173 1.24542942,32.6739958 C0.583220121,33.0012685 0.210251668,33.7090909 0.324425684,34.4397463 C0.4385997,35.1704017 1.00185818,35.7412262 1.73257189,35.8553911 C2.07509394,35.9086681 2.5622364,35.961945 3.15594129,35.961945 C4.74676592,35.961945 7.09113905,35.5890063 9.4887934,33.8613108 C12.1604654,35.2997886 15.0833202,36 17.9833402,36 C22.6416401,36 27.2542703,34.1961945 30.7251604,30.7255814 C34.1275461,27.3234672 36,22.810148 36,18 C36,13.189852 34.1199345,8.67653277 30.7175488,5.2744186 Z M29.263733,29.2718816 C24.1259023,34.4093023 16.1717792,35.4291755 9.91504306,31.7530655 C9.5040166,31.5095137 8.99403933,31.5856237 8.66674048,31.9128964 C8.63629408,31.9281184 8.60584767,31.9509514 8.58301287,31.9737844 C6.52026897,33.572093 4.49558308,33.9069767 3.15594129,33.9069767 L3.14832969,33.9069767 C4.69348471,32.7805497 5.66776965,31.1061311 6.23863973,29.8046512 C6.32997895,29.5839323 6.34520215,29.3556025 6.29192094,29.1424947 C6.26908614,28.9369979 6.18535852,28.7315011 6.0407381,28.5640592 C0.469046105,22.2697674 0.758286946,12.6799154 6.710559,6.72811839 C12.9292371,0.509936575 23.0450549,0.509936575 29.2561214,6.72811839 C35.4824111,12.9463002 35.4824111,23.0536998 29.263733,29.2718816 Z" id="Shape" fill-rule="nonzero"></path>
            <circle id="Oval" cx="18" cy="18" r="1"></circle>
            <circle id="Oval" cx="24" cy="18" r="1"></circle>
            <circle id="Oval" cx="12" cy="18" r="1"></circle>
        </g>
    </g>
</svg>