<?xml version="1.0" encoding="UTF-8"?>
<svg width="91px" height="94px" viewBox="0 0 91 94" version="1.1" xmlns="http://www.w3.org/2000/svg" xmlns:xlink="http://www.w3.org/1999/xlink">
    <!-- Generator: Sketch 52.2 (67145) - http://www.bohemiancoding.com/sketch -->
    <title>img-rated-excellent</title>
    <desc>Created with Sketch.</desc>
    <g id="Page-1" stroke="none" stroke-width="1" fill="none" fill-rule="evenodd">
        <g id="img-rated-excellent" transform="translate(1.000000, 0.000000)">
            <polygon id="Star" stroke="#FFFFFF" points="44.5 88.5283087 38.1669897 93.0470542 33.3635885 86.9271344 26.0140319 89.4786238 23.1293829 82.2533293 15.3586973 82.6308561 14.6264975 74.8855372 7.06421779 73.0585164 8.5437857 65.4206529 1.80256267 61.5370988 5.3740325 54.6254649 0 49 5.3740325 43.3745351 1.80256267 36.4629012 8.5437857 32.5793471 7.06421779 24.9414836 14.6264975 23.1144628 15.3586973 15.3691439 23.1293829 15.7466707 26.0140319 8.52137621 33.3635885 11.0728656 38.1669897 4.95294584 44.5 9.47169131 50.8330103 4.95294584 55.6364115 11.0728656 62.9859681 8.52137621 65.8706171 15.7466707 73.6413027 15.3691439 74.3735025 23.1144628 81.9357822 24.9414836 80.4562143 32.5793471 87.1974373 36.4629012 83.6259675 43.3745351 89 49 83.6259675 54.6254649 87.1974373 61.5370988 80.4562143 65.4206529 81.9357822 73.0585164 74.3735025 74.8855372 73.6413027 82.6308561 65.8706171 82.2533293 62.9859681 89.4786238 55.6364115 86.9271344 50.8330103 93.0470542"></polygon>
            <text id="RATED-EXCELLENT" font-family="Lato-Bold, Lato" font-size="13" font-weight="bold" fill="#FFFFFF">
                <tspan x="23.65775" y="44">RATED</tspan>
                <tspan x="9.1595" y="60">EXCELLENT</tspan>
            </text>
            <polygon id="Star" fill="#FFFFFF" points="34 71 31.648859 72.236068 32.097887 69.618034 30.1957739 67.763932 32.8244295 67.381966 34 65 35.1755705 67.381966 37.8042261 67.763932 35.902113 69.618034 36.351141 72.236068"></polygon>
            <polygon id="Star-Copy-2" fill="#FFFFFF" points="44 71 41.648859 72.236068 42.097887 69.618034 40.1957739 67.763932 42.8244295 67.381966 44 65 45.1755705 67.381966 47.8042261 67.763932 45.902113 69.618034 46.351141 72.236068"></polygon>
            <polygon id="Star-Copy-3" fill="#FFFFFF" points="54 71 51.648859 72.236068 52.097887 69.618034 50.1957739 67.763932 52.8244295 67.381966 54 65 55.1755705 67.381966 57.8042261 67.763932 55.902113 69.618034 56.351141 72.236068"></polygon>
            <polygon id="Star-Copy-5" fill="#FFFFFF" opacity="0.558640253" points="64.1957739 71 61.8446329 72.236068 62.2936609 69.618034 60.3915479 67.763932 63.0202034 67.381966 64.1957739 65 65.3713444 67.381966 68 67.763932 66.097887 69.618034 66.5469149 72.236068"></polygon>
            <polygon id="Star-Copy-4" fill="#FFFFFF" points="64.1957739 71 61.8446329 72.236068 62.2936609 69.618034 60.3915479 67.763932 63.0202034 67.381966 64.1957739 65"></polygon>
            <polygon id="Star-Copy" fill="#FFFFFF" points="24 71 21.648859 72.236068 22.097887 69.618034 20.1957739 67.763932 22.8244295 67.381966 24 65 25.1755705 67.381966 27.8042261 67.763932 25.902113 69.618034 26.351141 72.236068"></polygon>
            <path d="" id="Path-2" stroke="#979797"></path>
            <polygon id="Path-3" fill="#FFFFFF" points="35.3457031 19.3818359 43.5732422 31 70.2587891 0.723632813 43.5732422 23.0244141"></polygon>
        </g>
    </g>
</svg>