<svg width="651" height="159" viewBox="0 0 651 159" xmlns="http://www.w3.org/2000/svg"><title>img-save-up-to-50-percent-off</title><g fill="none" fill-rule="evenodd"><text font-family="Lato-Bold, Lato" font-size="45" font-weight="bold"><tspan x="179" y="61" fill="#A1A1A1">SAVE UP TO </tspan> <tspan x="436.94" y="61" font-family="Lato-Black, Lato" font-weight="700" fill="#186C5D">50% OFF </tspan> <tspan x="179" y="115" font-family="Lato-Medium, Lato" font-size="39" font-weight="400" fill="#02A1C5">INVIS</tspan> <tspan x="278.274" y="115" font-family="Lato-Medium, Lato" font-size="39" font-weight="400" fill="#026BAB">ALIGN</tspan> <tspan x="394.319" y="115" font-family="Lato-Medium, Lato" font-size="39" font-weight="400" fill="#A1A1A1"> TREATMENTS</tspan></text><ellipse fill="#FAD52D" cx="50.233" cy="44.247" rx="20.599" ry="20.505"/><path d="M49.871 23.742v41.01c11.576 0 20.96-9.181 20.96-20.506 0-11.324-9.384-20.504-20.96-20.504z" fill="#E3C129"/><ellipse fill="#FAE246" cx="50.233" cy="44.247" rx="14.817" ry="14.749"/><ellipse fill="#FAD52D" cx="91.431" cy="20.505" rx="20.599" ry="20.505"/><path d="M91.792 0v41.009c11.576 0 20.96-9.18 20.96-20.505C112.752 9.18 103.368 0 91.792 0z" fill="#E3C129"/><ellipse fill="#FAE246" cx="91.431" cy="20.505" rx="14.817" ry="14.749"/><path d="M127.556 159H7.602C3.403 159 0 155.609 0 151.426V63.691c0-4.183 3.403-7.573 7.602-7.573h119.954c4.199 0 7.602 3.39 7.602 7.573v87.735c0 4.183-3.403 7.574-7.602 7.574z" fill="#186C5D"/><path d="M127.396 152.125H7.646c-4.191 0-7.589-3.38-7.589-7.552v6.875c0 4.171 3.398 7.552 7.59 7.552h119.75c4.191 0 7.589-3.38 7.589-7.552v-6.875c0 4.171-3.398 7.552-7.59 7.552z" fill="#30A18D"/><path d="M127.396 56.414H67.522V159h59.874c4.192 0 7.59-3.38 7.59-7.552V63.966c0-4.172-3.398-7.552-7.59-7.552z" fill="#15423A"/><path d="M135.594 74H91.217A6.218 6.218 0 0 0 85 80.22v20.655a6.218 6.218 0 0 0 6.217 6.22h44.377V74z" fill="#051D19"/><path d="M140.204 103.095H91.231c-3.441 0-6.231-2.784-6.231-6.22V76.22c0-3.435 2.79-6.22 6.231-6.22h48.973c3.442 0 6.232 2.785 6.232 6.22v20.655c0 3.436-2.79 6.22-6.232 6.22z" fill="#186C5D"/><ellipse fill="#1B1B1C" cx="101.228" cy="89.195" rx="7.228" ry="7.195"/><ellipse fill="#EAF1C1" cx="101.228" cy="89.195" rx="7.228" ry="7.195"/><ellipse fill="#EAF1C1" cx="35.228" cy="89.195" rx="7.228" ry="7.195"/><path d="M32 117.531c8.341 10.32 21.102 16.918 35.404 16.918 14.997 0 28.3-7.256 36.589-18.449" stroke="#30A18D" stroke-width="10" stroke-linecap="round" stroke-linejoin="round"/><path stroke="#186C5D" stroke-width="5" stroke-linecap="round" stroke-linejoin="round" d="M83 24.985l5.657 4.447L99.634 12M44 47.26l3.957 3.172L55.634 38"/></g></svg>