<?xml version="1.0" encoding="UTF-8"?>
<svg width="651px" height="159px" viewBox="0 0 651 159" version="1.1" xmlns="http://www.w3.org/2000/svg" xmlns:xlink="http://www.w3.org/1999/xlink">
    <!-- Generator: Sketch 52.2 (67145) - http://www.bohemiancoding.com/sketch -->
    <title>img-save-up-to-50-percent-off</title>
    <desc>Created with Sketch.</desc>
    <g id="Page-1" stroke="none" stroke-width="1" fill="none" fill-rule="evenodd">
        <g id="Apple-TV" transform="translate(-434.000000, -313.000000)">
            <g id="img-save-up-to-50-percent-off" transform="translate(434.000000, 313.000000)">
                <g id="Group-3">
                    <text id="SAVE-UP-TO-50%-OFF-I" font-family="Lato-Bold, Lato" font-size="45" font-weight="bold">
                        <tspan x="179" y="61" fill="#A1A1A1">SAVE UP TO </tspan>
                        <tspan x="436.94" y="61" font-family="Lato-Black, Lato" font-weight="700" fill="#186C5D">50% OFF </tspan>
                        <tspan x="629.45" y="61" fill="#A1A1A1"></tspan>
                        <tspan x="179" y="115" font-family="Lato-Medium, Lato" font-size="39" font-weight="400" fill="#02A1C5">INVIS</tspan>
                        <tspan x="278.2745" y="115" font-family="Lato-Medium, Lato" font-size="39" font-weight="400" fill="#026BAB">ALIGN</tspan>
                        <tspan x="394.319" y="115" font-family="Lato-Medium, Lato" font-size="39" font-weight="400" fill="#A1A1A1"> TREATMENTS</tspan>
                    </text>
                    <g id="Group-2">
                        <g id="wallet-2">
                            <g id="wallet">
                                <ellipse id="Oval" fill="#FAD52D" cx="50.2326733" cy="44.2466063" rx="20.5990099" ry="20.5045249"></ellipse>
                                <path d="M49.8712871,23.7420814 L49.8712871,64.7511312 C61.4472487,64.7511312 70.8316832,55.5710408 70.8316832,44.2464515 C70.8316832,32.9218622 61.4472487,23.7420814 49.8712871,23.7420814 Z" id="Path" fill="#E3C129"></path>
                                <ellipse id="Oval" fill="#FAE246" cx="50.2326733" cy="44.2466063" rx="14.8168317" ry="14.7488688"></ellipse>
                                <ellipse id="Oval" fill="#FAD52D" cx="91.4306931" cy="20.5045249" rx="20.5990099" ry="20.5045249"></ellipse>
                                <path d="M91.7920792,0 L91.7920792,41.0090498 C103.368041,41.0090498 112.752475,31.8289593 112.752475,20.50437 C112.752475,9.17978072 103.368041,0 91.7920792,0 Z" id="Path" fill="#E3C129"></path>
                                <ellipse id="Oval" fill="#FAE246" cx="91.4306931" cy="20.5045249" rx="14.8168317" ry="14.7488688"></ellipse>
                                <path d="M127.555751,159 L7.60235284,159 C3.4034333,159 0,155.608762 0,151.426278 L0,63.6913695 C0,59.508263 3.4034333,56.1176471 7.60235284,56.1176471 L127.556063,56.1176471 C131.754983,56.1176471 135.158416,59.508263 135.158416,63.6913695 L135.158416,151.425967 C135.158728,155.608762 131.754671,159 127.555751,159 Z" id="Path" fill="#186C5D"></path>
                                <g id="Group" transform="translate(0.000000, 56.117647)">
                                    <path d="M127.39615,96.0075186 L7.64672752,96.0075186 C3.45494808,96.0075186 0.0573021855,92.6266557 0.0573021855,88.455582 L0.0573021855,95.3304164 C0.0573021855,99.5014901 3.45494808,102.882353 7.64672752,102.882353 L127.396461,102.882353 C131.588241,102.882353 134.985886,99.5014901 134.985886,95.3304164 L134.985886,88.455582 C134.986198,92.6263459 131.587929,96.0075186 127.39615,96.0075186 Z" id="Path" fill="#30A18D"></path>
                                    <path d="M127.39615,0.295941708 L67.5215943,0.295941708 L67.5215943,102.882353 L127.396461,102.882353 C131.588241,102.882353 134.985886,99.5014901 134.985886,95.3304164 L134.985886,7.84787828 C134.986198,3.67680457 131.587929,0.295941708 127.39615,0.295941708 Z" id="Path" fill="#15423A"></path>
                                </g>
                                <path d="M135.594059,74 L91.217097,74 C87.7832914,74 85,76.7848144 85,80.2198031 L85,100.875219 C85,104.31052 87.7832914,107.095023 91.217097,107.095023 L135.594059,107.095023 L135.594059,74 Z" id="Path" fill="#051D19"></path>
                                <path d="M140.20444,103.095023 L91.2312038,103.095023 C87.7896068,103.095023 85,100.31052 85,96.8752195 L85,76.2198031 C85,72.7845029 87.7896068,70 91.2312038,70 L140.20444,70 C143.646037,70 146.435644,72.7845029 146.435644,76.2198031 L146.435644,96.8752195 C146.435644,100.31052 143.646037,103.095023 140.20444,103.095023 Z" id="Path" fill="#186C5D"></path>
                                <ellipse id="Oval" fill="#1B1B1C" cx="101.227723" cy="89.1945701" rx="7.22772277" ry="7.19457014"></ellipse>
                                <ellipse id="Oval" fill="#EAF1C1" cx="101.227723" cy="89.1945701" rx="7.22772277" ry="7.19457014"></ellipse>
                                <ellipse id="Oval-Copy" fill="#EAF1C1" cx="35.2277228" cy="89.1945701" rx="7.22772277" ry="7.19457014"></ellipse>
                            </g>
                        </g>
                        <path d="M32,117.53132 C40.3411479,127.850216 53.1019082,134.448871 67.403867,134.448871 C82.4012556,134.448871 95.7039209,127.192898 103.992814,116" id="Path" stroke="#30A18D" stroke-width="10" stroke-linecap="round" stroke-linejoin="round"></path>
                    </g>
                </g>
                <polyline id="Path-2" stroke="#186C5D" stroke-width="5" stroke-linecap="round" stroke-linejoin="round" points="83 24.9853516 88.6572266 29.4316406 99.6337891 12"></polyline>
                <polyline id="Path-2-Copy" stroke="#186C5D" stroke-width="5" stroke-linecap="round" stroke-linejoin="round" points="44 47.2607017 47.956704 50.4316406 55.6337891 38"></polyline>
            </g>
        </g>
    </g>
</svg>